<?xml version="1.0" standalone="no"?>
<!DOCTYPE svg PUBLIC "-//W3C//DTD SVG 20010904//EN"
 "http://www.w3.org/TR/2001/REC-SVG-20010904/DTD/svg10.dtd">
<svg version="1.0" xmlns="http://www.w3.org/2000/svg"
 width="862.000000pt" height="862.000000pt" viewBox="0 0 862.000000 862.000000"
 preserveAspectRatio="xMidYMid meet">
<metadata>
Created by potrace 1.14, written by Peter Selinger 2001-2017
</metadata>
<g transform="translate(0.000000,862.000000) scale(0.100000,-0.100000)"
fill="#000000" stroke="none">
<path d="M4059 6906 c-2 -2 -38 -7 -79 -11 -98 -9 -226 -31 -350 -60 -14 -3
-35 -8 -47 -11 -43 -9 -302 -95 -330 -109 -15 -8 -35 -15 -44 -15 -9 0 -22 -7
-29 -15 -7 -8 -18 -15 -25 -15 -30 0 -375 -188 -412 -225 -8 -9 -29 -23 -46
-32 -17 -8 -36 -21 -42 -27 -7 -6 -24 -20 -39 -31 -47 -34 -170 -136 -197
-163 -15 -15 -37 -36 -50 -48 -74 -65 -169 -173 -318 -360 -4 -5 -13 -20 -20
-31 -6 -12 -17 -28 -23 -35 -24 -25 -58 -77 -58 -88 0 -5 -4 -10 -10 -10 -5 0
-10 -6 -10 -14 0 -7 -9 -24 -20 -38 -27 -35 -129 -235 -178 -350 -39 -91 -85
-226 -113 -328 -7 -25 -14 -49 -15 -55 -8 -25 -53 -255 -59 -295 -34 -240 -34
-574 0 -770 2 -14 7 -42 10 -63 8 -56 35 -189 42 -207 3 -8 7 -22 8 -30 7 -51
96 -320 122 -369 7 -15 13 -29 13 -33 0 -13 95 -203 103 -206 4 -2 7 -9 7 -16
0 -23 173 -297 192 -304 4 -2 8 -8 8 -13 0 -10 97 -135 135 -175 11 -11 42
-46 69 -77 27 -31 53 -54 59 -50 5 3 7 2 4 -4 -5 -8 27 -41 157 -158 77 -70
288 -225 305 -225 5 0 11 -4 13 -8 8 -21 290 -172 433 -232 28 -11 89 -35 95
-36 6 -1 38 -13 65 -24 39 -17 264 -78 315 -86 14 -2 36 -7 50 -10 34 -8 103
-20 180 -30 171 -23 569 -23 686 0 12 2 45 7 75 11 185 23 484 108 689 197 77
34 239 117 307 158 36 22 67 40 69 40 3 0 10 5 17 10 7 6 48 36 92 66 73 52
196 148 236 184 330 305 548 605 711 980 29 66 80 203 83 220 1 8 7 26 12 40
16 38 34 97 39 128 3 15 10 45 16 67 14 53 26 117 34 170 1 11 3 20 4 20 1 0
4 17 14 90 26 184 26 588 1 705 -3 14 -7 43 -10 65 -10 113 -95 445 -139 550
-7 17 -21 50 -31 75 -51 129 -215 440 -237 448 -4 2 -8 9 -8 15 0 7 -17 35
-38 62 -20 28 -49 68 -64 90 -15 22 -39 52 -53 67 -14 15 -25 29 -25 32 0 3
-12 18 -27 34 -16 16 -52 56 -82 90 -30 33 -58 59 -63 56 -5 -3 -7 -1 -6 4 4
13 -112 124 -231 218 -13 11 -28 24 -35 29 -33 29 -126 95 -135 95 -5 0 -11 4
-13 8 -10 24 -282 177 -429 241 -161 71 -415 152 -544 175 -27 5 -147 24 -250
41 -43 7 -530 17 -536 11z"/>
</g>
</svg>
